# xmcd
#
# Track frame offsets: 
#        150
#        25600
#        44950
#        65275
#        84503
#        106177
#        130968
#        153993
#        172801
#        195017
#        214667
#        234533
#
# Disc length: 3431 seconds
#
# Revision: 0
# Processed by: cddbd v1.5.2PL0 Copyright (c) Steve Scherf et al.
# Submitted via: ExactAudioCopy v1.0b6
#
DISCID=910d650c
DTITLE=Raphael Ashanti - Love and Life
DYEAR=2014
DGENRE=R&B
TTITLE0=Sun Come Out
TTITLE1=Can't get Enough
TTITLE2=Worth It
TTITLE3=Running Back To You
TTITLE4=Don't Give Up
TTITLE5=My Best Friend
TTITLE6=Hollywood Bound
TTITLE7=Let Me Be
TTITLE8=Can We Talk
TTITLE9=Nothing Left To Say
TTITLE10=My Mother (Anna's Song)
TTITLE11=Seasons Change
EXTD=
EXTT0=
EXTT1=
EXTT2=
EXTT3=
EXTT4=
EXTT5=
EXTT6=
EXTT7=
EXTT8=
EXTT9=
EXTT10=
EXTT11=
PLAYORDER=
